<?xml version="1.0" encoding="utf-8"?>
<svg xmlns="http://www.w3.org/2000/svg" style="margin: auto; background: none; display: block; shape-rendering: auto;" width="280" height="250" preserveAspectRatio="xMidYMid">
<style type="text/css">
  text {
    text-anchor: middle; font-size: 80px; opacity: 0;
  }
</style>
<g style="transform-origin:140px 125px;transform:scale(1)">
<g transform="translate(140,125)">
  <g transform="translate(0,0)"><g class="path" style="transform: scale(0.91); transform-origin: -44.4399px 4.77281px; animation: 1s linear -0.495s infinite normal forwards running breath-0101f724-c8bd-4956-9994-29b3c32bc5e3;"><path d="M35.20-0.88L35.20-0.88L35.20-0.88Q37.12-0.88 39.20-3.12L39.20-3.12L40.40-2.16L40.40-2.16Q39.84-1.04 37.92-0.16L37.92-0.16L37.92-0.16Q36 0.72 33.68 0.72L33.68 0.72L33.68 0.72Q26.40 0.72 26.40-5.84L26.40-5.84L26.40-5.84Q26.40-8.64 27.84-15.84L27.84-15.84L27.84-15.84Q29.28-23.04 29.28-25.28L29.28-25.28L29.28-25.28Q29.28-28.72 26-28.72L26-28.72L26-28.72Q21.04-28.72 17.68-16L17.68-16L14.80 0L5.20 0L10.48-29.52L10.48-29.52Q8.08-29.28 6.48-27.28L6.48-27.28L5.28-28.24L5.28-28.24Q7.68-31.12 11.32-31.12L11.32-31.12L11.32-31.12Q14.96-31.12 16.96-29.28L16.96-29.28L16.96-29.28Q18.96-27.44 18.96-24.08L18.96-24.08L18.96-23.84L18.96-23.84Q22.08-31.12 28.40-31.12L28.40-31.12L28.40-31.12Q32.88-31.12 35.48-28.68L35.48-28.68L35.48-28.68Q38.08-26.24 38.32-21.84L38.32-21.84L38.32-21.84Q39.84-26.24 42.16-28.68L42.16-28.68L42.16-28.68Q44.48-31.12 48.88-31.12L48.88-31.12L48.88-31.12Q53.28-31.12 55.92-28.44L55.92-28.44L55.92-28.44Q58.56-25.76 58.56-21.04L58.56-21.04L58.56-21.04Q58.56-18.56 57.04-11.48L57.04-11.48L57.04-11.48Q55.52-4.40 55.36-0.88L55.36-0.88L55.36-0.88Q57.28-0.88 59.36-3.12L59.36-3.12L60.56-2.16L60.56-2.16Q60-1.04 58.08-0.16L58.08-0.16L58.08-0.16Q56.16 0.72 53.84 0.72L53.84 0.72L53.84 0.72Q46.56 0.72 46.56-5.84L46.56-5.84L46.56-5.84Q46.56-8.64 48-15.84L48-15.84L48-15.84Q49.44-23.04 49.44-25.28L49.44-25.28L49.44-25.28Q49.44-28.72 46.16-28.72L46.16-28.72L46.16-28.72Q40.40-28.72 36.88-11.60L36.88-11.60L36.88-11.60Q35.36-4.32 35.20-0.88" fill="#f3934f" stroke="none" stroke-width="none" transform="translate(-77.3199462890625,19.97280885696411)" style="fill: rgb(243, 147, 79);"></path></g><g class="path" style="transform: scale(0.91); transform-origin: 4.28005px 4.77281px; animation: 1s linear -0.33s infinite normal forwards running breath-0101f724-c8bd-4956-9994-29b3c32bc5e3;"><path d="M92.56 0.72L92.56 0.72L92.56 0.72Q85.52 0.72 84.88-5.44L84.88-5.44L84.88-5.44Q81.36 0.72 76 0.72L76 0.72L76 0.72Q70.64 0.72 67.48-2.52L67.48-2.52L67.48-2.52Q64.32-5.76 64.32-11.60L64.32-11.60L64.32-11.60Q64.32-20.72 68.80-25.92L68.80-25.92L68.80-25.92Q73.28-31.12 80.40-31.12L80.40-31.12L80.40-31.12Q86.24-31.12 88.16-25.60L88.16-25.60L88.16-25.60Q88.56-28 89.04-30.40L89.04-30.40L89.04-30.40Q94.96-30.40 97.84-30.88L97.84-30.88L98.88-31.12L93.36-0.88L93.36-0.88Q95.76-1.12 97.36-3.12L97.36-3.12L98.56-2.16L98.56-2.16Q96.16 0.72 92.56 0.72zM73.36-7.52L73.36-7.52Q73.36-3.92 74.28-2.52L74.28-2.52L74.28-2.52Q75.20-1.12 77.12-1.12L77.12-1.12L77.12-1.12Q79.04-1.12 81.04-3.20L81.04-3.20L81.04-3.20Q83.68-5.92 85.28-10.08L85.28-10.08L85.28-10.08Q85.52-11.12 86.20-15.08L86.20-15.08L86.20-15.08Q86.88-19.04 87.36-21.60L87.36-21.60L87.36-21.60Q87.12-24.64 85.68-26.88L85.68-26.88L85.68-26.88Q84.24-29.12 82.08-29.12L82.08-29.12L82.08-29.12Q78.16-29.12 75.76-22.12L75.76-22.12L75.76-22.12Q73.36-15.12 73.36-7.52L73.36-7.52" fill="#f3934f" stroke="none" stroke-width="none" transform="translate(-77.3199462890625,19.97280885696411)" style="fill: rgb(204, 81, 81);"></path></g><g class="path" style="transform: scale(0.91); transform-origin: 37.2801px -5.58719px; animation: 1s linear -0.165s infinite normal forwards running breath-0101f724-c8bd-4956-9994-29b3c32bc5e3;"><path d="M117.68-2.88L117.68-2.88L117.68-2.88Q116.64-1.52 114.84-0.40L114.84-0.40L114.84-0.40Q113.04 0.72 110.16 0.72L110.16 0.72L110.16 0.72Q107.28 0.72 105.28-1.12L105.28-1.12L105.28-1.12Q103.28-2.96 103.28-6.32L103.28-6.32L103.28-6.32Q103.28-6.96 103.44-8.40L103.44-8.40L108.64-37.20L108.64-37.20Q110.08-45.12 112.60-48.48L112.60-48.48L112.60-48.48Q115.12-51.84 119.28-51.84L119.28-51.84L119.28-51.84Q122.16-51.84 124.04-49.68L124.04-49.68L124.04-49.68Q125.92-47.52 125.92-43.12L125.92-43.12L125.92-43.12Q125.92-38.72 122.52-30.56L122.52-30.56L122.52-30.56Q119.12-22.40 119.12-18.64L119.12-18.64L117.68-18.64L117.68-18.64Q117.68-22.88 121.04-30.76L121.04-30.76L121.04-30.76Q124.40-38.64 124.40-43.36L124.40-43.36L124.40-43.36Q124.40-46.24 123.08-48.32L123.08-48.32L123.08-48.32Q121.76-50.40 119.84-50.40L119.84-50.40L119.84-50.40Q119.76-48.32 117.08-31.72L117.08-31.72L117.08-31.72Q114.40-15.12 111.76-0.88L111.76-0.88L111.76-0.88Q114-0.88 115.92-3.20L115.92-3.20L115.92-3.20Q117.84-5.52 118.64-7.84L118.64-7.84L119.52-10.24L120.96-9.60L120.96-9.60Q120.72-8.48 119.72-6.36L119.72-6.36L119.72-6.36Q118.72-4.24 117.68-2.88" fill="#f3934f" stroke="none" stroke-width="none" transform="translate(-77.3199462890625,19.97280885696411)" style="fill: rgb(243, 147, 79);"></path></g><g class="path" style="transform: scale(0.91); transform-origin: 65.2401px 4.77281px; animation: 1s linear 0s infinite normal forwards running breath-0101f724-c8bd-4956-9994-29b3c32bc5e3;"><path d="M153.52 0.72L153.52 0.72L153.52 0.72Q146.48 0.72 145.84-5.44L145.84-5.44L145.84-5.44Q142.32 0.72 136.96 0.72L136.96 0.72L136.96 0.72Q131.60 0.72 128.44-2.52L128.44-2.52L128.44-2.52Q125.28-5.76 125.28-11.60L125.28-11.60L125.28-11.60Q125.28-20.72 129.76-25.92L129.76-25.92L129.76-25.92Q134.24-31.12 141.36-31.12L141.36-31.12L141.36-31.12Q147.20-31.12 149.12-25.60L149.12-25.60L149.12-25.60Q149.52-28 150-30.40L150-30.40L150-30.40Q155.92-30.40 158.80-30.88L158.80-30.88L159.84-31.12L154.32-0.88L154.32-0.88Q156.72-1.12 158.32-3.12L158.32-3.12L159.52-2.16L159.52-2.16Q157.12 0.72 153.52 0.72zM134.32-7.52L134.32-7.52Q134.32-3.92 135.24-2.52L135.24-2.52L135.24-2.52Q136.16-1.12 138.08-1.12L138.08-1.12L138.08-1.12Q140-1.12 142-3.20L142-3.20L142-3.20Q144.64-5.92 146.24-10.08L146.24-10.08L146.24-10.08Q146.48-11.12 147.16-15.08L147.16-15.08L147.16-15.08Q147.84-19.04 148.32-21.60L148.32-21.60L148.32-21.60Q148.08-24.64 146.64-26.88L146.64-26.88L146.64-26.88Q145.20-29.12 143.04-29.12L143.04-29.12L143.04-29.12Q139.12-29.12 136.72-22.12L136.72-22.12L136.72-22.12Q134.32-15.12 134.32-7.52L134.32-7.52" fill="#f3934f" stroke="none" stroke-width="none" transform="translate(-77.3199462890625,19.97280885696411)" style="fill: rgb(204, 81, 81);"></path></g></g>
</g>
</g>
<style id="breath-0101f724-c8bd-4956-9994-29b3c32bc5e3" data-anikit="">@keyframes breath-0101f724-c8bd-4956-9994-29b3c32bc5e3
{
  0% {
    animation-timing-function: cubic-bezier(0.9647,0.2413,-0.0705,0.7911);
    transform: scale(0.9099999999999999);
  }
  51% {
    animation-timing-function: cubic-bezier(0.9226,0.2631,-0.0308,0.7628);
    transform: scale(1.02994);
  }
  100% {
    transform: scale(0.9099999999999999);
  }
}</style></svg>